<?xml version="1.0" standalone="no"?>
<!DOCTYPE svg PUBLIC "-//W3C//DTD SVG 20010904//EN"
 "http://www.w3.org/TR/2001/REC-SVG-20010904/DTD/svg10.dtd">
<svg version="1.0" xmlns="http://www.w3.org/2000/svg"
 width="256.000000pt" height="256.000000pt" viewBox="0 0 256.000000 256.000000"
 preserveAspectRatio="xMidYMid meet">

<g transform="translate(0.000000,256.000000) scale(0.100000,-0.100000)"
fill="#000000" stroke="none">
<path d="M1254 2277 c-11 -12 -42 -56 -69 -97 -113 -171 -279 -299 -467 -361
-95 -31 -108 -38 -165 -94 -52 -52 -64 -71 -82 -129 -12 -38 -21 -95 -21 -130
0 -77 31 -201 66 -265 26 -49 126 -168 283 -341 194 -212 278 -328 356 -494
28 -61 60 -118 69 -125 23 -19 79 -19 102 -1 9 8 41 65 69 126 78 166 162 282
356 494 157 173 257 292 283 341 35 64 66 188 66 265 0 35 -9 92 -21 130 -18
57 -30 77 -82 129 -57 56 -70 63 -162 93 -201 64 -348 180 -481 378 -70 105
-76 110 -100 81z m97 -414 c80 -76 83 -92 27 -148 -46 -45 -78 -124 -78 -191
1 -40 38 -127 85 -198 57 -86 115 -115 161 -82 17 13 19 25 16 145 -4 158 6
189 75 222 53 26 130 23 171 -8 42 -30 72 -98 72 -164 0 -77 -46 -166 -153
-294 -102 -122 -428 -435 -452 -435 -24 0 -350 314 -452 435 -107 128 -153
216 -153 294 0 66 30 134 72 164 41 31 118 34 171 8 69 -33 79 -64 75 -222 -3
-120 -1 -132 16 -145 46 -33 104 -4 161 82 47 71 84 158 85 198 0 67 -32 146
-76 189 -24 23 -44 49 -44 57 0 18 130 150 148 150 7 0 40 -26 73 -57z"/>
</g>
</svg>
