<?xml version="1.0" standalone="no"?>
<!DOCTYPE svg PUBLIC "-//W3C//DTD SVG 20010904//EN"
 "http://www.w3.org/TR/2001/REC-SVG-20010904/DTD/svg10.dtd">
<svg version="1.0" xmlns="http://www.w3.org/2000/svg"
 width="256.000000pt" height="256.000000pt" viewBox="0 0 256.000000 256.000000"
 preserveAspectRatio="xMidYMid meet">

<g transform="translate(0.000000,256.000000) scale(0.100000,-0.100000)"
fill="#000000" stroke="none">
<path d="M1058 2288 c-21 -22 -40 -60 -58 -113 -29 -89 -12 -74 -180 -153
-190 -90 -360 -265 -447 -460 -65 -146 -96 -379 -60 -449 55 -106 190 -114
242 -13 8 15 19 75 24 132 23 244 148 431 356 532 97 47 179 66 295 66 145 0
301 -49 308 -96 2 -16 -113 -135 -485 -505 -486 -482 -489 -485 -627 -674
-156 -213 -184 -265 -167 -301 6 -14 21 -29 35 -35 34 -16 85 10 240 119 71
51 133 92 137 92 4 0 54 -24 111 -53 264 -135 548 -148 812 -36 37 16 79 29
92 29 13 0 52 -16 87 -35 78 -43 127 -46 162 -11 36 36 40 71 21 168 l-18 88
35 47 c72 100 119 201 151 329 31 123 14 194 -57 227 -94 45 -179 -11 -207
-137 -7 -28 -32 -93 -57 -145 -83 -168 -232 -289 -418 -336 -70 -18 -231 -20
-307 -4 -77 16 -148 49 -148 68 -1 9 247 261 549 561 401 397 562 564 595 615
26 39 87 125 136 193 102 141 122 187 96 227 -19 29 -52 33 -97 9 -31 -15
-354 -231 -398 -266 -34 -26 -56 -23 -122 18 -83 50 -168 83 -284 108 l-100
23 -56 82 c-84 125 -132 147 -191 89z"/>
</g>
</svg>
