<?xml version="1.0" standalone="no"?>
<!DOCTYPE svg PUBLIC "-//W3C//DTD SVG 20010904//EN"
 "http://www.w3.org/TR/2001/REC-SVG-20010904/DTD/svg10.dtd">
<svg version="1.0" xmlns="http://www.w3.org/2000/svg"
 width="256.000000pt" height="256.000000pt" viewBox="0 0 256.000000 256.000000"
 preserveAspectRatio="xMidYMid meet">

<g transform="translate(0.000000,256.000000) scale(0.100000,-0.100000)"
fill="#000000" stroke="none">
<path d="M1127 2521 c-19 -21 -48 -67 -65 -102 -16 -35 -148 -394 -293 -798
-158 -440 -269 -735 -278 -739 -23 -9 -48 32 -61 102 -13 69 -9 124 17 285 23
142 -8 182 -81 101 -48 -53 -141 -246 -166 -344 -48 -190 -4 -392 113 -522 26
-29 47 -60 47 -69 0 -9 -15 -81 -34 -158 -33 -138 -41 -192 -38 -249 2 -27 3
-28 67 -28 l64 0 25 43 c13 23 48 95 77 160 29 65 61 123 71 128 11 6 33 5 60
-1 24 -6 104 -13 178 -17 466 -20 994 174 1403 517 54 45 110 100 124 122 23
34 25 41 13 63 -7 14 -21 25 -30 25 -9 0 -72 -32 -141 -72 -433 -250 -932
-370 -1299 -313 -172 26 -182 34 -162 112 34 127 96 305 108 310 8 3 48 -30
96 -79 126 -127 264 -188 429 -188 163 0 310 61 424 175 119 118 175 252 175
418 0 161 -52 293 -163 414 -63 69 -64 70 -71 142 -7 85 -27 128 -60 137 -35
8 -54 0 -115 -50 l-55 -45 -110 0 c-74 0 -130 -6 -166 -16 -93 -28 -99 -28
-106 -12 -3 9 20 98 51 199 65 209 80 319 51 363 -24 37 -57 32 -99 -14z m384
-810 c70 -33 122 -83 160 -153 32 -59 34 -69 34 -153 -1 -78 -5 -97 -28 -142
-54 -104 -127 -160 -241 -183 -142 -29 -295 50 -363 188 -39 80 -40 191 -1
272 41 86 112 150 201 182 69 24 174 20 238 -11z"/>
</g>
</svg>
