<?xml version="1.0" standalone="no"?>
<!DOCTYPE svg PUBLIC "-//W3C//DTD SVG 20010904//EN"
 "http://www.w3.org/TR/2001/REC-SVG-20010904/DTD/svg10.dtd">
<svg version="1.0" xmlns="http://www.w3.org/2000/svg"
 width="256.000000pt" height="256.000000pt" viewBox="0 0 256.000000 256.000000"
 preserveAspectRatio="xMidYMid meet">

<g transform="translate(0.000000,256.000000) scale(0.100000,-0.100000)"
fill="#000000" stroke="none">
<path d="M1223 2545 c-11 -8 -41 -57 -67 -109 -52 -107 -86 -142 -237 -242
-149 -98 -152 -136 -16 -254 97 -84 174 -177 213 -257 27 -53 29 -71 36 -208
3 -82 7 -209 7 -280 1 -137 -4 -155 -43 -155 -24 0 -173 -97 -186 -121 -6 -10
-10 -32 -10 -50 0 -25 9 -40 47 -73 77 -66 122 -115 161 -173 34 -52 36 -60
43 -166 4 -62 8 -168 9 -237 1 -69 7 -145 13 -170 l12 -45 63 -3 c60 -3 63 -2
74 25 6 17 14 126 18 268 5 184 10 248 22 275 24 55 101 150 172 213 69 61 81
91 56 137 -12 23 -163 120 -187 120 -38 0 -43 19 -42 155 0 71 4 198 7 281 7
145 8 153 41 220 28 56 60 94 166 199 72 72 134 140 137 153 13 49 -10 81
-101 139 -158 102 -218 166 -257 272 -33 90 -95 125 -151 86z m4 -1656 l43
-21 45 22 c48 23 71 21 82 -6 8 -22 -96 -124 -126 -124 -22 0 -105 69 -122
103 -7 13 -7 23 2 33 15 19 25 18 76 -7z"/>
<path d="M423 1920 c-32 -13 -50 -48 -56 -108 -9 -76 -45 -146 -121 -231 -109
-122 -104 -146 46 -222 134 -69 226 -156 251 -239 9 -30 40 -134 68 -230 58
-196 67 -219 105 -249 36 -28 68 -26 93 5 31 40 27 88 -30 326 -30 125 -50
236 -50 269 0 73 28 145 101 262 33 52 60 104 60 115 0 30 -45 79 -79 85 -16
4 -65 20 -109 37 -61 23 -90 42 -130 82 -29 29 -52 56 -52 60 0 8 -60 49 -70
47 -3 0 -15 -4 -27 -9z"/>
<path d="M2069 1923 c-9 -2 -44 -36 -79 -75 -68 -76 -107 -98 -239 -138 -118
-36 -127 -72 -50 -193 64 -100 96 -169 109 -236 9 -48 5 -74 -45 -287 -30
-128 -55 -253 -55 -277 0 -111 103 -132 153 -32 8 17 45 134 83 260 l68 230
66 65 c48 49 90 78 165 116 152 78 158 105 49 226 -77 85 -110 150 -122 237
-11 79 -49 118 -103 104z"/>
</g>
</svg>
